#!OML:ASF I:\Actors\actors\Patient Classification 1\Patient 1\Session 1\Subject1.ASF
:FULLY-SPECIFIED
:DEGREES
928
root 0.794728 17.6555 8.35897 7.28031 -0.372156 -10.3246
lowerback 2.61065 0.677615 7.39346
upperback -5.94888 1.5535 2.43482
thorax -7.6188 0.409884 -1.70945
lowerneck -15.2554 -5.41215 -4.46509
upperneck 30.2308 -9.59703 8.90858
head 13.4141 -3.5949 2.7014
rclavicle 5.24295e-015 3.18055e-014
rhumerus -28.8484 35.3612 -106.744
rradius 122.12
rwrist 2.3706
rhand -11.4505 -41.2631
rfingers 7.12502
rthumb 14.5865 -70.7302
lclavicle 5.24295e-015 3.18055e-014
lhumerus -37.3489 -41.5881 111.395
lradius 116.345
lwrist 18.4674
lhand -40.4904 -38.5334
lfingers 7.12502
lthumb -13.4404 -8.98701
rfemur -8.05925 19.4925 27.2069
rtibia 11.2828
rfoot -13.3416 -16.3929
rtoes -3.18208
lfemur 0.4219 -32.4758 -6.32386
ltibia -0.6619
lfoot -13.0151 40.9154
ltoes -1.72696
929
root 0.809997 17.6497 8.3532 7.14733 -0.689071 -10.7184
lowerback 1.91464 0.847898 7.50951
upperback -5.37907 1.70195 2.84484
thorax -6.59565 0.534095 -1.34499
lowerneck -15.2668 -5.53031 -4.69274
upperneck 29.7235 -9.55033 8.63834
head 13.1903 -3.64684 2.62969
rclavicle 2.12824e-014 2.26615e-014
rhumerus -26.107 34.0102 -104.205
rradius 122.05
rwrist 1.51318
rhand -10.816 -41.7539
rfingers 7.12502
rthumb 15.1977 -71.1758
lclavicle 2.12824e-014 2.26615e-014
lhumerus -38.3099 -42.7019 113.525
lradius 115.914
lwrist 18.2255
lhand -39.3992 -38.272
lfingers 7.12502
lthumb -12.3886 -8.65909
rfemur -7.96485 19.469 27.6833
rtibia 11.4099
rfoot -13.3009 -16.0563
rtoes -3.44604
lfemur 0.684264 -31.9379 -6.0127
ltibia -0.676469
lfoot -13.013 40.6777
ltoes -1.74299
930
root 0.815655 17.6505 8.35084 7.12632 -1.13369 -10.599
lowerback 2.8646 1.02394 8.13659
upperback -5.87147 2.07292 2.2115
thorax -7.61802 0.614858 -2.40657
lowerneck -15.1696 -5.61827 -4.34327
upperneck 30.0467 -9.85802 8.73127
head 13.3216 -3.726 2.56297
rclavicle 1.31943e-014 -1.59028e-014
rhumerus -25.8542 31.0795 -104.842
rradius 122.399
rwrist 1.72446
rhand -9.90921 -41.5903
rfingers 7.12502
rthumb 16.0711 -70.9438
lclavicle 1.31943e-014 -1.59028e-014
lhumerus -41.1939 -43.8934 115.623
lradius 115.985
lwrist 18.1714
lhand -37.2956 -39.8402
lfingers 7.12502
lthumb -10.3598 -10.1154
rfemur -8.03255 19.6616 27.5309
rtibia 11.5559
rfoot -13.2907 -15.8894
rtoes -3.55874
lfemur 0.829973 -31.5906 -6.25387
ltibia -0.609132
lfoot -13.2556 40.6525
ltoes -1.35752
931
root 0.815969 17.6517 8.34799 7.11758 -1.54014 -10.5662
lowerback 3.49472 1.23006 8.57427
upperback -6.14775 2.44099 1.78977
thorax -8.22552 0.72209 -3.14765
lowerneck -15.1636 -5.71074 -4.2189
upperneck 30.1464 -10.1047 8.90815
head 13.3913 -3.79462 2.57161
rclavicle 3.926e-015 4.05521e-014
rhumerus -25.3235 29.9436 -104.605
rradius 122.605
rwrist 2.08734
rhand -9.77307 -41.3179
rfingers 7.12502
rthumb 16.2022 -70.6609
lclavicle 3.926e-015 4.05521e-014
lhumerus -41.8974 -43.995 115.992
lradius 116.302
lwrist 17.5882
lhand -37.7284 -38.9747
lfingers 7.12502
lthumb -10.7773 -9.27115
rfemur -8.09423 19.8739 27.4971
rtibia 11.6716
rfoot -13.2629 -15.7344
rtoes -3.78313
lfemur 0.920724 -31.2097 -6.34165
ltibia -0.511626
lfoot -13.466 40.5863
ltoes -1.14906
932
root 0.812664 17.6536 8.34529 7.1696 -1.83149 -10.5203
lowerback 3.46191 1.43727 8.54784
upperback -6.09325 2.70334 1.70553
thorax -8.11152 0.855635 -3.24554
lowerneck -15.524 -5.89087 -4.8065
upperneck 30.2866 -10.3582 9.35455
head 13.6221 -3.89794 2.8007
rclavicle -7.00716e-015 1.39149e-014
rhumerus -25.2303 31.1589 -104.525
rradius 122.927
rwrist 2.85948
rhand -11.7567 -41.0433
rfingers 7.12502
rthumb 14.2915 -70.5315
lclavicle -7.00716e-015 1.39149e-014
lhumerus -40.6261 -43.8713 115.115
lradius 116.761
lwrist 18.097
lhand -37.7288 -37.5364
lfingers 7.12502
lthumb -10.7777 -7.8329
rfemur -8.18661 20.0023 27.4412
rtibia 11.725
rfoot -13.2145 -15.5737
rtoes -3.98751
lfemur 0.905559 -30.9079 -6.38434
ltibia -0.423362
lfoot -13.5822 40.5384
ltoes -1.09835
933
root 0.806155 17.6568 8.34691 7.28294 -1.95114 -10.3462
lowerback 2.92147 1.59403 8.11336
upperback -5.86055 2.81451 1.81562
thorax -7.54349 0.970608 -2.87623
lowerneck -15.6763 -5.9739 -5.13116
upperneck 29.9858 -10.3291 9.32842
head 13.5401 -3.92759 2.83998
rclavicle -1.15544e-014 -3.65764e-014
rhumerus -25.6966 32.9599 -104.667
rradius 123.447
rwrist 3.9128
rhand -13.541 -40.8533
rfingers 7.12502
rthumb 12.5717 -70.455
lclavicle -1.15544e-014 -3.65764e-014
lhumerus -38.0295 -43.5504 113.184
lradius 117.147
lwrist 18.0138
lhand -37.6989 -36.709
lfingers 7.12502
lthumb -10.7488 -7.00396
rfemur -8.28593 20.023 27.2234
rtibia 11.6868
rfoot -13.2018 -15.4971
rtoes -3.96041
lfemur 0.798059 -30.866 -6.54575
ltibia -0.359255
lfoot -13.7329 40.6129
ltoes -0.881514
934
root 0.793518 17.6648 8.35353 7.51735 -1.87581 -9.99116
lowerback 2.32515 1.63197 7.40337
upperback -5.77081 2.76023 1.93562
thorax -7.12988 1.00745 -2.33036
lowerneck -15.7444 -5.94277 -5.13762
upperneck 29.8267 -10.1721 9.08014
head 13.4529 -3.89275 2.76444
rclavicle 1.16786e-014 5.56597e-015
rhumerus -27.8035 34.1859 -106.442
rradius 124.448
rwrist 5.14582
rhand -13.8284 -40.497
rfingers 7.12502
rthumb 12.2945 -70.1156
lclavicle 1.16786e-014 5.56597e-015
lhumerus -35.2818 -42.6542 110.848
lradius 117.523
lwrist 17.2289
lhand -36.1024 -37.6644
lfingers 7.12502
lthumb -9.2086 -7.88544
rfemur -8.50579 20.13 26.7488
rtibia 11.5921
rfoot -13.2253 -15.6899
rtoes -3.76535
lfemur 0.43696 -31.0713 -6.76605
ltibia -0.279798
lfoot -13.8305 40.7715
ltoes -0.659389
